<?xml version="1.0" encoding="UTF-8"?>
<svg width="752pt" height="752pt" version="1.1" viewBox="0 0 752 752" xmlns="http://www.w3.org/2000/svg">
 <path d="m560.66 224.54-343.77-0.035156c-6.5547 0-11.867-5.3125-11.867-11.871 0-6.5508 5.3125-11.863 11.867-11.863l298.89-0.046875c7.8477 0 14.207-6.3594 14.207-14.207s-6.3594-14.207-14.207-14.207l-308.43-0.003906c-18.277 0-33.152 14.875-33.152 33.152v298.95c0 9.4609 7.6719 17.145 17.145 17.145h36.438c22.219 34.914 61.234 58.148 105.59 58.148s83.375-23.23 105.59-58.145h121.68c9.4727 0 17.145-7.6797 17.145-17.145v-262.72c0-9.4688-7.6719-17.148-17.145-17.148zm-227.28 331.48c-55.922 0-101.41-45.488-101.41-101.4 0-4.2109 0.26562-8.4531 0.78125-12.617 6.2695-50.621 49.535-88.797 100.63-88.797 13.09 0 25.816 2.4531 37.836 7.2852 38.621 15.535 63.578 52.48 63.578 94.129 0 55.91-45.492 101.4-101.41 101.4zm218.2-215.64h-92.867c-17.555 0-31.785-14.227-31.785-31.781 0-17.559 14.23-31.793 31.785-31.793h92.863zm-103.35-31.781c0 7.5195 6.0938 13.625 13.625 13.625s13.625-6.1055 13.625-13.625c0-7.5312-6.0938-13.625-13.625-13.625s-13.625 6.0938-13.625 13.625zm-68.902 145.07c3.9219 0 7.1055-3.1836 7.1055-7.1055s-3.1836-7.1055-7.1055-7.1055h-11.219v-28.93c0-3.9219-3.1836-7.1055-7.1055-7.1055s-7.1055 3.1836-7.1055 7.1055v28.93h-21.805l-20.746-32.734c-1.6875-2.6719-4.9297-3.8984-7.9805-3.0195-3.0352 0.88281-5.125 3.6602-5.125 6.8203v28.93h-11.215c-3.9219 0-7.1055 3.1836-7.1055 7.1055s3.1836 7.1055 7.1055 7.1055h11.215v3.1523h-11.215c-3.9219 0-7.1055 3.1836-7.1055 7.1055s3.1836 7.1055 7.1055 7.1055h11.215v29.879c0 3.9219 3.1836 7.1055 7.1055 7.1055s7.1055-3.1836 7.1055-7.1055v-29.879h22.828l19.719 31.109c1.6875 2.6719 4.9375 3.8945 7.9805 3.0195 3.0352-0.88281 5.125-3.6602 5.125-6.8203v-27.312h11.219c3.9219 0 7.1055-3.1836 7.1055-7.1055s-3.1836-7.1055-7.1055-7.1055h-11.219v-3.1523l11.223 0.003907zm-66.867-18.656 2.8242 4.4531h-2.8242zm0 21.812v-3.1523h11.824l2.0039 3.1523zm41.441 17.039-1.793-2.832h1.793zm0-17.039h-10.797l-2-3.1523h12.797z"/>
</svg>
